<?xml version="1.0" encoding="utf-8"?>
<!-- Generator: Adobe Illustrator 25.3.1, SVG Export Plug-In . SVG Version: 6.00 Build 0)  -->
<svg version="1.1" id="Layer_1" xmlns="http://www.w3.org/2000/svg" xmlns:xlink="http://www.w3.org/1999/xlink" x="0px" y="0px"
	 viewBox="0 0 128 124.9" style="enable-background:new 0 0 128 124.9;" xml:space="preserve">
<style type="text/css">
	.st0{fill-rule:evenodd;clip-rule:evenodd;fill:#181616;}
	.st1{fill:#181616;}
</style>
<g>
	<path class="st0" d="M63.8,0C28.5,0,0,28.5,0,63.8c0,28.2,18.3,52.1,43.7,60.7c3.2,0.6,4.4-1.4,4.4-3c0-1.5,0-6.6-0.2-11.9
		c-17.7,3.9-21.5-7.5-21.5-7.5c-2.9-7.4-7.1-9.3-7.1-9.3c-5.9-3.9,0.5-3.9,0.5-3.9c6.5,0.5,9.8,6.6,9.8,6.6c5.7,9.8,15,6.9,18.6,5.3
		c0.6-4.2,2.3-6.9,4.1-8.6C38,90.6,23.1,85.2,23.1,60.7c0-6.9,2.6-12.6,6.6-17.1c-0.6-1.7-2.9-8.1,0.6-17c0,0,5.4-1.7,17.6,6.6
		c5.1-1.4,10.5-2.1,15.9-2.1s11,0.8,16.1,2.1c12.2-8.3,17.6-6.6,17.6-6.6c3.5,8.9,1.4,15.3,0.6,17c4.1,4.5,6.6,10.2,6.6,17.1
		c0,24.5-15,29.9-29.1,31.5c2.3,2,4.4,5.9,4.4,11.9c0,8.6,0,15.5,0,17.6c0,1.7,1.2,3.8,4.4,3C109.7,116.3,128,92.2,128,64
		C127.7,28.7,99.2,0,63.8,0z"/>
	<path class="st1" d="M24.2,91.8c-0.2,0.3-0.6,0.5-1.1,0.2c-0.5-0.2-0.8-0.6-0.6-0.9s0.6-0.5,1.1-0.2C24,91,24.3,91.5,24.2,91.8
		L24.2,91.8z M26.7,94.6c-0.3,0.3-0.9,0.2-1.4-0.3c-0.5-0.5-0.5-1.1-0.2-1.4c0.3-0.3,0.9-0.2,1.4,0.3C26.9,93.7,27,94.3,26.7,94.6
		L26.7,94.6z M29.3,98.4c-0.5,0.3-1.1,0-1.5-0.6c-0.5-0.6-0.5-1.2,0-1.5c0.5-0.3,1.1,0,1.5,0.6C29.6,97.4,29.6,98.1,29.3,98.4
		L29.3,98.4z M32.8,101.9c-0.3,0.5-1.1,0.3-1.7-0.3c-0.6-0.5-0.8-1.2-0.3-1.7c0.3-0.5,1.1-0.3,1.7,0.3
		C32.9,100.8,33.1,101.6,32.8,101.9L32.8,101.9z M37.4,104c-0.2,0.5-0.9,0.8-1.7,0.5c-0.8-0.2-1.2-0.8-1.1-1.4
		c0.2-0.5,0.9-0.8,1.7-0.5C37.1,102.9,37.6,103.5,37.4,104L37.4,104z M42.7,104.4c0,0.5-0.6,0.9-1.4,0.9s-1.4-0.5-1.4-0.9
		c0-0.6,0.6-0.9,1.4-1.1C42.1,103.4,42.7,103.8,42.7,104.4z M47.6,103.5c0.2,0.5-0.5,1.1-1.2,1.2c-0.8,0.2-1.5-0.2-1.5-0.8
		c-0.2-0.5,0.5-1.1,1.2-1.2C46.7,102.8,47.5,103.1,47.6,103.5L47.6,103.5z"/>
</g>
</svg>
