<?xml version="1.0" encoding="utf-8"?>
<!-- Generator: Adobe Illustrator 25.3.1, SVG Export Plug-In . SVG Version: 6.00 Build 0)  -->
<svg version="1.1" id="Layer_1" xmlns="http://www.w3.org/2000/svg" xmlns:xlink="http://www.w3.org/1999/xlink" x="0px" y="0px"
	 viewBox="0 0 91.8 84.6" style="enable-background:new 0 0 91.8 84.6;" xml:space="preserve">
<style type="text/css">
	.st0{fill:#383636;}
	.st1{fill:#6E6867;}
</style>
<g id="Layer_3">
	<path d="M91.6,48.3l-5.1-15.8l0,0l0,0L76.3,1.2c-0.5-1.6-2.8-1.6-3.3,0L62.8,32.5H29L18.8,1.2c-0.5-1.6-2.8-1.6-3.3,0L5.3,32.5
		L0.2,48.3c-0.5,1.4,0,3,1.3,3.9l44.4,32.4l44.4-32.4C91.6,51.3,92.1,49.7,91.6,48.3z"/>
</g>
<g id="Layer_2_1_">
	<path d="M45.9,84.6l16.9-52.1H29L45.9,84.6z"/>
	<path class="st0" d="M45.9,84.6L29,32.5H5.3L45.9,84.6z"/>
	<path class="st1" d="M5.3,32.5L0.2,48.3c-0.5,1.4,0,3,1.3,3.9l44.4,32.4L5.3,32.5z"/>
	<path class="st0" d="M45.9,84.6l16.9-52.1h23.7L45.9,84.6z"/>
	<path class="st1" d="M86.5,32.5l5.1,15.8c0.5,1.4,0,3-1.3,3.9L45.9,84.6L86.5,32.5z"/>
	<path d="M5.3,32.5H29L18.8,1.2c-0.5-1.6-2.8-1.6-3.3,0L5.3,32.5z"/>
	<path d="M86.5,32.5H62.8L73,1.2c0.5-1.6,2.8-1.6,3.3,0L86.5,32.5z"/>
</g>
</svg>
